<svg width="32" height="24" viewBox="0 0 32 24" fill="none" xmlns="http://www.w3.org/2000/svg">
<path d="M26.7516 2.37984C24.7414 1.48709 22.6203 0.849919 20.4411 0.484213C20.4214 0.480995 20.4011 0.483774 20.3831 0.492168C20.365 0.500562 20.3501 0.514158 20.3404 0.531088C20.0672 0.999838 19.765 1.61296 19.5538 2.09296C17.2048 1.74798 14.8154 1.74798 12.4664 2.09296C12.2308 1.55825 11.9643 1.0368 11.6681 0.531088C11.6582 0.514344 11.6433 0.500904 11.6253 0.492537C11.6073 0.48417 11.5871 0.481268 11.5674 0.484213C9.3877 0.847963 7.26614 1.48546 5.25695 2.37984C5.23976 2.38619 5.22538 2.39812 5.21626 2.41359C1.19789 8.22421 0.0954522 13.8923 0.636015 19.4892C0.637952 19.5155 0.65539 19.5417 0.676702 19.5586C3.01667 21.236 5.63397 22.5167 8.41701 23.3461C8.43666 23.3521 8.45778 23.3519 8.47729 23.3455C8.4968 23.3391 8.51369 23.3268 8.52551 23.3105C9.12226 22.523 9.65314 21.6923 10.1104 20.8186C10.1199 20.8006 10.1232 20.7801 10.1197 20.7602C10.1162 20.7402 10.1061 20.7219 10.091 20.708C10.081 20.6988 10.0691 20.6918 10.0561 20.6873C9.22139 20.3769 8.41294 20.0039 7.63814 19.5717C7.6165 19.5598 7.6004 19.5404 7.59319 19.5173C7.58598 19.4943 7.5882 19.4695 7.59939 19.448C7.60598 19.434 7.61595 19.4218 7.62845 19.4123C7.7912 19.2942 7.95395 19.1705 8.10895 19.0467C8.12264 19.0361 8.13907 19.0292 8.15648 19.0269C8.17388 19.0246 8.19161 19.0269 8.20776 19.0336C13.2821 21.2761 18.7749 21.2761 23.7872 19.0336C23.8039 19.0266 23.8223 19.0241 23.8404 19.0264C23.8585 19.0287 23.8756 19.0357 23.8899 19.0467C24.0449 19.1705 24.2076 19.2942 24.3704 19.4123C24.3836 19.4217 24.3942 19.434 24.4012 19.4483C24.4083 19.4625 24.4116 19.4783 24.4108 19.494C24.41 19.5098 24.4052 19.5252 24.3968 19.5387C24.3884 19.5523 24.3767 19.5636 24.3626 19.5717C23.5896 20.0078 22.7801 20.3804 21.9427 20.6855C21.9293 20.6901 21.9172 20.6976 21.9072 20.7073C21.8971 20.717 21.8894 20.7288 21.8846 20.7417C21.8801 20.7542 21.8783 20.7675 21.8793 20.7807C21.8803 20.7939 21.8841 20.8068 21.8904 20.8186C22.3554 21.6905 22.8882 22.523 23.4733 23.3105C23.4851 23.3268 23.502 23.3391 23.5216 23.3455C23.5411 23.3519 23.5622 23.3521 23.5818 23.3461C26.3695 22.5193 28.9911 21.2384 31.3338 19.5586C31.3455 19.5507 31.3553 19.5404 31.3623 19.5284C31.3693 19.5164 31.3735 19.503 31.3745 19.4892C32.0216 13.0186 30.2914 7.39734 26.7903 2.41546C26.7868 2.40723 26.7815 2.39981 26.7749 2.39368C26.7682 2.38754 26.7602 2.38283 26.7516 2.37984V2.37984ZM10.868 16.0805C9.33926 16.0805 8.08183 14.723 8.08183 13.058C8.08183 11.3911 9.31601 10.0336 10.868 10.0336C12.4315 10.0336 13.6773 11.4023 13.6541 13.058C13.6541 14.723 12.4199 16.0805 10.868 16.0805ZM21.1677 16.0805C19.641 16.0805 18.3816 14.723 18.3816 13.058C18.3816 11.3911 19.6158 10.0336 21.1677 10.0336C22.7313 10.0336 23.979 11.4023 23.9538 13.058C23.9538 14.723 22.7313 16.0805 21.1677 16.0805Z" fill="white"/>
</svg>
