<svg width="24" height="24" viewBox="0 0 31 30" fill="none" xmlns="http://www.w3.org/2000/svg">
<path d="M15.5083 0.0541992C23.7228 0.0541992 30.3833 6.71475 30.3833 14.9292C30.3833 23.1437 23.7228 29.8042 15.5083 29.8042C7.29385 29.8042 0.633301 23.1437 0.633301 14.9292C0.633301 6.71475 7.29385 0.0541992 15.5083 0.0541992ZM7.0083 8.47783L8.36299 9.77607C8.48252 9.86572 8.53897 10.0118 8.51572 10.1546V19.7071C8.53897 19.8532 8.48252 19.9993 8.36299 20.0856L7.03486 21.3839V21.6728H13.702V21.3972L12.3308 20.0657C12.1946 19.9296 12.1946 19.8897 12.1946 19.6872V11.9575L16.013 21.6395H16.5276L20.9702 11.9575V18.4487C21.0101 18.721 20.9138 18.9966 20.7212 19.1925L18.9349 21.354V21.6429H24.0083V21.354L22.222 19.1925C22.1279 19.0953 22.0578 18.9774 22.0175 18.8482C21.9771 18.719 21.9675 18.5822 21.9896 18.4487V10.9448C21.9663 10.7356 22.046 10.5331 22.2054 10.3903L23.7925 8.47783V8.18896H18.8618L15.0567 16.5396L11.7065 8.19561H7.0083V8.47783Z" fill="white"/>
</svg>
 