<svg width="24" height="24" viewBox="0 0 31 26" fill="none" xmlns="http://www.w3.org/2000/svg">
<path d="M30.9589 3.40177C29.8276 3.88979 28.5965 4.24102 27.3283 4.37781C28.6449 3.59563 29.6309 2.35993 30.1012 0.902531C28.8657 1.63747 27.5123 2.15283 26.1009 2.42574C25.511 1.79511 24.7976 1.29272 24.005 0.949881C23.2125 0.60704 22.3578 0.431091 21.4943 0.432999C18.0006 0.432999 15.1908 3.26498 15.1908 6.74026C15.1908 7.22827 15.2499 7.71629 15.346 8.18582C10.1146 7.91224 5.4489 5.413 2.34703 1.58649C1.78183 2.55187 1.48565 3.65105 1.4893 4.7697C1.4893 6.95838 2.60213 8.88827 4.2991 10.0233C3.29905 9.9839 2.32241 9.70902 1.44863 9.22101V9.29865C1.44863 12.3635 3.61513 14.9035 6.50257 15.4876C5.96042 15.6284 5.40271 15.7005 4.84257 15.702C4.43219 15.702 4.044 15.6614 3.6521 15.6059C4.45068 18.1052 6.77616 19.9204 9.54529 19.9796C7.37878 21.6766 4.66511 22.6748 1.71852 22.6748C1.18983 22.6748 0.701816 22.6563 0.195312 22.5971C2.99032 24.3902 6.30662 25.4254 9.87802 25.4254C21.4721 25.4254 27.8164 15.8203 27.8164 7.48337C27.8164 7.20979 27.8164 6.9362 27.7979 6.66262C29.0253 5.76422 30.1012 4.65139 30.9589 3.40177Z" fill="white"/>
</svg>
 