<svg width="18" height="6" viewBox="0 0 18 6" fill="none" xmlns="http://www.w3.org/2000/svg">
<path d="M15.7265 5.74423H15.2448C15.2059 5.73268 15.1705 5.71343 15.1315 5.70573C14.1185 5.53633 13.3181 4.62008 13.2508 3.54599C13.1729 2.34485 13.8033 1.32849 14.8304 0.997407C14.965 0.955059 15.1067 0.92426 15.2448 0.885762H15.7265C15.7584 0.897311 15.7867 0.916561 15.8221 0.92041C16.7572 1.08595 17.4691 1.81742 17.671 2.81838C17.6851 2.89537 17.7064 2.97237 17.7241 3.04937V3.57294C17.7135 3.60759 17.6958 3.64224 17.6922 3.67689C17.5435 4.67784 16.8882 5.44009 15.978 5.6711C15.8894 5.6942 15.8079 5.72115 15.7265 5.74424L15.7265 5.74423ZM2.11172 0.885742L2.59344 0.885762C2.6324 0.897311 2.66782 0.916561 2.70678 0.92041C3.72683 1.09365 4.52375 2.01376 4.5875 3.09941C4.65834 4.29671 4.0208 5.30921 2.99013 5.63645C2.85906 5.6788 2.72449 5.7096 2.59342 5.74424H2.11173C2.07986 5.7327 2.05152 5.71345 2.01964 5.70575C1.09877 5.52095 0.496653 4.93963 0.209764 3.96947C0.170803 3.84243 0.149552 3.70769 0.117676 3.57679V3.05322C0.128301 3.01857 0.146011 2.98392 0.149552 2.94927C0.301852 1.94446 0.95355 1.18605 1.8638 0.955059C1.94881 0.93194 2.03027 0.908841 2.11172 0.885742ZM8.67831 0.885762H9.16C9.19896 0.897311 9.23438 0.91656 9.27334 0.92426C10.2898 1.0975 11.108 2.05226 11.1505 3.13021C11.2001 4.34291 10.5271 5.37081 9.48939 5.65955C9.37959 5.69035 9.2698 5.7173 9.16 5.74424H8.67831C8.63935 5.7327 8.60393 5.71345 8.56497 5.70575C7.54846 5.53635 6.73028 4.57775 6.68425 3.4998C6.63112 2.2871 7.30762 1.25919 8.34538 0.970458C8.45871 0.939659 8.56851 0.91271 8.67831 0.885762Z" fill="white" fill-opacity="0.66"/>
</svg>
