<svg width="18" height="20" viewBox="0 0 18 20" fill="none" xmlns="http://www.w3.org/2000/svg">
<path d="M14.6915 13.9431C14.0112 13.9431 13.3835 14.1818 12.8918 14.5804L7.94612 11.0024C8.02893 10.5479 8.02893 10.0821 7.94612 9.62757L12.8918 6.04962C13.3835 6.44823 14.0112 6.68692 14.6915 6.68692C16.2716 6.68692 17.5557 5.40277 17.5557 3.82265C17.5557 2.24252 16.2716 0.958374 14.6915 0.958374C13.1114 0.958374 11.8272 2.24252 11.8272 3.82265C11.8272 4.09953 11.8654 4.36447 11.9394 4.61748L7.24198 8.0188C6.54501 7.09508 5.43749 6.49597 4.18915 6.49597C2.07913 6.49597 0.370117 8.20498 0.370117 10.315C0.370117 12.425 2.07913 14.134 4.18915 14.134C5.43749 14.134 6.54501 13.5349 7.24198 12.6112L11.9394 16.0125C11.8654 16.2655 11.8272 16.5329 11.8272 16.8073C11.8272 18.3875 13.1114 19.6716 14.6915 19.6716C16.2716 19.6716 17.5557 18.3875 17.5557 16.8073C17.5557 15.2272 16.2716 13.9431 14.6915 13.9431ZM14.6915 2.58146C15.3765 2.58146 15.9327 3.13761 15.9327 3.82265C15.9327 4.50768 15.3765 5.06383 14.6915 5.06383C14.0064 5.06383 13.4503 4.50768 13.4503 3.82265C13.4503 3.13761 14.0064 2.58146 14.6915 2.58146ZM4.18915 12.4155C3.0315 12.4155 2.08868 11.4726 2.08868 10.315C2.08868 9.15735 3.0315 8.21453 4.18915 8.21453C5.34679 8.21453 6.28961 9.15735 6.28961 10.315C6.28961 11.4726 5.34679 12.4155 4.18915 12.4155ZM14.6915 18.0485C14.0064 18.0485 13.4503 17.4924 13.4503 16.8073C13.4503 16.1223 14.0064 15.5662 14.6915 15.5662C15.3765 15.5662 15.9327 16.1223 15.9327 16.8073C15.9327 17.4924 15.3765 18.0485 14.6915 18.0485Z" fill="white" fill-opacity="0.66"/>
</svg>
